<?xml version="1.0" standalone="no"?>
<!DOCTYPE svg PUBLIC "-//W3C//DTD SVG 20010904//EN"
 "http://www.w3.org/TR/2001/REC-SVG-20010904/DTD/svg10.dtd">
<svg version="1.0" xmlns="http://www.w3.org/2000/svg"
 width="512.000000pt" height="512.000000pt" viewBox="0 0 512.000000 512.000000"
 preserveAspectRatio="xMidYMid meet">
<metadata>
Created by potrace 1.11, written by Peter Selinger 2001-2013
</metadata>
<g transform="translate(0.000000,512.000000) scale(0.100000,-0.100000)"
fill="#000000" stroke="none">
<path d="M674 4325 c-6 -18 4 -1309 10 -1350 4 -22 9 -54 11 -70 2 -17 6 -42
9 -55 3 -14 8 -36 10 -50 39 -236 167 -525 329 -741 80 -108 105 -137 199
-230 l77 -77 1091 0 1091 -1 82 83 c114 114 157 165 238 285 78 115 185 328
220 437 l22 71 56 -15 c60 -16 266 -22 336 -10 197 34 395 162 517 333 63 88
102 180 135 320 12 52 10 234 -4 295 -20 94 -19 90 -42 151 -53 141 -167 279
-304 369 -148 98 -275 135 -477 139 -69 1 -126 3 -127 5 -1 1 -3 27 -4 59 -1
32 -7 58 -13 58 -6 1 -787 2 -1735 3 -1141 1 -1725 -2 -1727 -9z m3741 -566
c49 -18 79 -33 93 -46 7 -7 17 -13 21 -13 15 0 82 -75 107 -120 115 -201 7
-471 -214 -536 -68 -20 -168 -20 -229 0 l-48 16 2 232 c2 128 3 290 3 359 l0
126 118 -3 c64 -2 131 -9 147 -15z"/>
<path d="M4 1406 c25 -255 212 -476 483 -571 78 -27 108 -33 203 -43 83 -9
3403 -7 3490 2 348 34 639 301 667 613 l6 63 -2428 0 -2427 -1 6 -63z"/>
</g>
</svg>
